<svg width="48" height="48" viewBox="0 0 48 48" fill="none" xmlns="http://www.w3.org/2000/svg">
<path d="M0 12C0 5.37258 5.37258 0 12 0H36C42.6274 0 48 5.37258 48 12V36C48 42.6274 42.6274 48 36 48H12C5.37258 48 0 42.6274 0 36V12Z" fill="#FFC716"/>
<path fill-rule="evenodd" clip-rule="evenodd" d="M17.5003 23.1377C20.4405 22.7711 22.7709 20.4407 23.1375 17.5005H27.2503V14.2505H22.7153C21.7511 11.8684 19.4157 10.188 16.6878 10.188C13.098 10.188 10.1878 13.0981 10.1878 16.688C10.1878 19.4159 11.8682 21.7513 14.2503 22.7155L14.2503 27.2505H17.5003V23.1377ZM16.6878 19.1255C18.034 19.1255 19.1253 18.0342 19.1253 16.688C19.1253 15.3418 18.034 14.2505 16.6878 14.2505C15.3416 14.2505 14.2503 15.3418 14.2503 16.688C14.2503 18.0342 15.3416 19.1255 16.6878 19.1255Z" fill="#101214"/>
<path d="M37.0003 15.8755C37.0003 18.1191 35.1815 19.938 32.9378 19.938C30.6941 19.938 28.8753 18.1191 28.8753 15.8755C28.8753 13.6318 30.6941 11.813 32.9378 11.813C35.1815 11.813 37.0003 13.6318 37.0003 15.8755Z" fill="#101214"/>
<path d="M15.8753 37.0005C18.119 37.0005 19.9378 35.1816 19.9378 32.938C19.9378 30.6943 18.119 28.8755 15.8753 28.8755C13.6316 28.8755 11.8128 30.6943 11.8128 32.938C11.8128 35.1816 13.6316 37.0005 15.8753 37.0005Z" fill="#101214"/>
<path d="M32.9378 37.0005C35.1815 37.0005 37.0003 35.1816 37.0003 32.938C37.0003 30.6943 35.1815 28.8755 32.9378 28.8755C30.6941 28.8755 28.8753 30.6943 28.8753 32.938C28.8753 35.1816 30.6941 37.0005 32.9378 37.0005Z" fill="#101214"/>
<path d="M27.2503 31.313H21.5628V34.563H27.2503V31.313Z" fill="#101214"/>
<path d="M31.3128 21.563V27.2505H34.5628V21.563H31.3128Z" fill="#101214"/>
</svg>
