<svg width="75" height="75" viewBox="0 0 75 75" fill="none" xmlns="http://www.w3.org/2000/svg">
<g transform="translate(-53, 0)">
<path d="M53 18.75C53 8.39466 61.3947 0 71.75 0H109.25C119.605 0 128 8.39466 128 18.75V56.25C128 66.6053 119.605 75 109.25 75H71.75C61.3947 75 53 66.6053 53 56.25V18.75Z" fill="#94C748"/>
<path d="M92.1187 35.5343V45.4815H82.1525V35.5343H92.1187V25.5938H73.9385C72.9675 25.6004 72.1863 26.3794 72.193 27.3348C72.193 27.3426 72.193 27.3504 72.193 27.3582V53.71C72.1729 54.6654 72.9441 55.4544 73.9139 55.4745C73.9218 55.4745 73.9307 55.4745 73.9385 55.4745H100.315C101.286 55.4678 102.067 54.6888 102.06 53.7335C102.06 53.7257 102.06 53.7179 102.06 53.71V35.5343H92.1187Z" fill="#101214"/>
<path d="M92.1189 15.6484V25.5945H102.109V35.5351H112.045V17.3895C112.065 16.4341 111.294 15.6451 110.324 15.625C110.316 15.625 110.307 15.625 110.299 15.625L92.1189 15.6484Z" fill="#101214"/>
</g>
</svg>
