<svg width="75" height="75" viewBox="0 0 75 75" fill="none" xmlns="http://www.w3.org/2000/svg">
<path d="M0 18.75C0 8.39466 8.39466 0 18.75 0H56.25C66.6053 0 75 8.39466 75 18.75V56.25C75 66.6053 66.6053 75 56.25 75H18.75C8.39466 75 0 66.6053 0 56.25V18.75Z" fill="#FFC716"/>
<path d="M51.3443 54.4375C47.5733 57.5235 42.7529 59.375 37.5 59.375H20V57.9167L31.9954 46.0985C33.5837 47.1175 35.4728 47.7083 37.5 47.7083C39.5273 47.7083 41.4166 47.1174 43.005 46.0983L51.3443 54.4375Z" fill="#101214"/>
<path d="M54.4378 51.3439C57.5236 47.573 59.375 42.7527 59.375 37.5C59.375 32.2473 57.5236 27.427 54.4378 23.6561L46.0985 31.9954C47.1175 33.5837 47.7083 35.4728 47.7083 37.5C47.7083 39.5272 47.1175 41.4163 46.0985 43.0046L54.4378 51.3439Z" fill="#101214"/>
<path d="M51.3443 20.5625L43.005 28.9017C41.4166 27.8826 39.5273 27.2917 37.5 27.2917C35.4728 27.2917 33.5837 27.8825 31.9954 28.9015L23.6561 20.5622C27.427 17.4764 32.2473 15.625 37.5 15.625C42.7529 15.625 47.5733 17.4765 51.3443 20.5625Z" fill="#101214"/>
<path d="M20.5625 23.6557C17.4765 27.4267 15.625 32.2471 15.625 37.5C15.625 42.7529 17.4765 47.5733 20.5625 51.3443L28.9017 43.005C27.8826 41.4166 27.2917 39.5273 27.2917 37.5C27.2917 35.4727 27.8826 33.5834 28.9017 31.995L20.5625 23.6557Z" fill="#101214"/>
</svg>
