<svg width="75" height="75" viewBox="0 0 75 75" fill="none" xmlns="http://www.w3.org/2000/svg">
<g transform="translate(-211.446, 0)">
<path d="M211.446 18.75C211.446 8.39466 219.841 0 230.196 0H267.696C278.052 0 286.446 8.39466 286.446 18.75V56.25C286.446 66.6053 278.052 75 267.696 75H230.196C219.841 75 211.446 66.6053 211.446 56.25V18.75Z" fill="#FFC716"/>
<path d="M254.261 31.8828H268.209C270.304 31.8828 271.019 33.8753 269.742 35.4591L247.926 62.384C240.876 56.764 241.54 47.8742 246.7 41.3857L254.261 31.8828ZM243.481 42.6119H229.533C227.439 42.6119 226.723 40.6193 228.001 39.0355L249.816 12.1106C256.867 17.7306 256.101 26.5182 250.992 33.0579L243.481 42.6119Z" fill="#101214"/>
</g>
</svg>
