<svg width="75" height="75" viewBox="0 0 75 75" fill="none" xmlns="http://www.w3.org/2000/svg">
<g transform="translate(-54, 0)">
<path d="M54 18.75C54 8.39466 62.3947 0 72.75 0H110.25C120.605 0 129 8.39466 129 18.75V56.25C129 66.6053 120.605 75 110.25 75H72.75C62.3947 75 54 66.6053 54 56.25V18.75Z" fill="#FFC716"/>
<path d="M93.6206 60.1987C92.1257 61.3003 91.3389 61.2216 89.8439 60.1201C82.6054 54.9272 75.9176 49.0262 71.4329 42.8892C70.9608 42.2597 71.1968 41.3943 71.9049 41.0009L80.0876 35.8867C80.7958 35.4146 81.4252 35.4933 81.976 36.1227C85.1232 39.742 88.1917 43.2826 91.7323 45.8003C95.2729 43.2826 98.3414 39.742 101.489 36.1227C102.039 35.4933 102.669 35.4146 103.377 35.8867L111.56 41.0009C112.268 41.3943 112.504 42.2597 112.032 42.8892C107.547 49.0262 100.859 54.9272 93.6206 60.1987ZM91.7323 37.6176C98.184 37.6176 103.534 32.3461 103.534 25.8943C103.534 19.4426 98.184 14.0137 91.7323 14.0137C85.2805 14.0137 79.9303 19.3639 79.9303 25.8943C79.9303 32.4248 85.1232 37.6176 91.7323 37.6176Z" fill="#101214"/>
</g>
</svg>
