<svg width="75" height="75" viewBox="0 0 75 75" fill="none" xmlns="http://www.w3.org/2000/svg">
<defs>
<linearGradient id="rovoGrad" x1="34" y1="4" x2="109" y2="71" gradientUnits="userSpaceOnUse">
<stop offset="0" stop-color="#1868DB"/>
<stop offset="0.45" stop-color="#8C5BE6"/>
<stop offset="1" stop-color="#F1518C"/>
</linearGradient>
</defs>
<g transform="translate(-34, 0)">
<path d="M34 18.75C34 8.39466 42.3947 0 52.75 0H90.25C100.605 0 109 8.39466 109 18.75V56.25C109 66.6053 100.605 75 90.25 75H52.75C42.3947 75 34 66.6053 34 56.25V18.75Z" fill="url(#rovoGrad)"/>
<path fill-rule="evenodd" clip-rule="evenodd" d="M74.3961 14.7701C72.7875 13.8421 70.8079 13.8259 69.1863 14.7217C69.1574 14.7441 69.1267 14.7647 69.0942 14.7835L69.094 14.7836L69.0905 14.7856C67.9487 15.4455 67.1109 16.4983 66.7091 17.7159C66.5396 18.2374 66.45 18.7896 66.45 19.3552V26.3529L75.216 31.4117L75.2166 31.412C77.3696 32.6501 78.6896 34.9387 78.6896 37.4204V55.4857C78.6896 56.2354 78.5679 56.9684 78.3387 57.6605C78.3204 57.7164 78.3014 57.7721 78.2817 57.8274L90.041 51.0383L90.0423 51.0375C91.6845 50.0934 92.6918 48.3485 92.6918 46.4531V28.3878C92.6918 26.4998 91.6786 24.7474 90.0412 23.8028L90.041 23.8026L74.3961 14.7701Z" fill="white"/>
<path fill-rule="evenodd" clip-rule="evenodd" d="M53.4459 23.8199L65.2072 17.0295L65.197 17.0583C64.9372 17.7908 64.7986 18.5718 64.7986 19.3717V37.4369C64.7986 39.9184 66.1184 42.2068 68.271 43.445L68.2722 43.4456L77.0383 48.5044V55.5022C77.0383 56.1081 76.9353 56.6986 76.7416 57.2525C76.3262 58.4248 75.5034 59.4354 74.3943 60.0753L74.394 60.0754C74.3643 60.0926 74.336 60.1114 74.3092 60.1316C72.6863 61.0315 70.7034 61.0167 69.0923 60.0874L69.0921 60.0872L53.4472 51.0547L53.447 51.0546C51.8097 50.11 50.7964 48.3575 50.7964 46.4695L50.7964 28.4043C50.7964 26.5088 51.8037 24.764 53.4459 23.8199Z" fill="white"/>
</g>
</svg>
