<svg xmlns="http://www.w3.org/2000/svg" viewBox="0 0 24 18"><rect width="24" height="18" fill="#fff"/><path d="M8,9 a4,4 0 0,1 8,0 a2,2 0 0,0 -4,0 a2,2 0 0,1 -4,0 z" fill="#CD2E3A"/><path d="M8,9 a4,4 0 0,0 8,0 a2,2 0 0,0 -4,0 a2,2 0 0,1 -4,0 z" fill="#0047A0"/><g fill="#000"><g transform="translate(4.5,4) rotate(33.7)"><rect x="-2.1" y="-1.25" width="4.2" height="0.55"/><rect x="-2.1" y="-0.27" width="4.2" height="0.55"/><rect x="-2.1" y="0.7" width="4.2" height="0.55"/></g><g transform="translate(19.5,4) rotate(-33.7)"><rect x="-2.1" y="-1.25" width="4.2" height="0.55"/><rect x="-2.1" y="-0.27" width="1.7" height="0.55"/><rect x="0.4" y="-0.27" width="1.7" height="0.55"/><rect x="-2.1" y="0.7" width="4.2" height="0.55"/></g><g transform="translate(4.5,14) rotate(-33.7)"><rect x="-2.1" y="-1.25" width="1.7" height="0.55"/><rect x="0.4" y="-1.25" width="1.7" height="0.55"/><rect x="-2.1" y="-0.27" width="4.2" height="0.55"/><rect x="-2.1" y="0.7" width="1.7" height="0.55"/><rect x="0.4" y="0.7" width="1.7" height="0.55"/></g><g transform="translate(19.5,14) rotate(33.7)"><rect x="-2.1" y="-1.25" width="1.7" height="0.55"/><rect x="0.4" y="-1.25" width="1.7" height="0.55"/><rect x="-2.1" y="-0.27" width="1.7" height="0.55"/><rect x="0.4" y="-0.27" width="1.7" height="0.55"/><rect x="-2.1" y="0.7" width="1.7" height="0.55"/><rect x="0.4" y="0.7" width="1.7" height="0.55"/></g></g></svg>
